<?xml version="1.0" encoding="utf-8"?>
<!-- Generator: Adobe Illustrator 23.0.3, SVG Export Plug-In . SVG Version: 6.00 Build 0)  -->
<svg version="1.1" id="Layer_1" xmlns="http://www.w3.org/2000/svg" xmlns:xlink="http://www.w3.org/1999/xlink" x="0px" y="0px"
	 viewBox="0 0 120 139" style="enable-background:new 0 0 120 139;" xml:space="preserve">
<style type="text/css">
	.st0{fill:#B7B7B7;stroke:#848484;stroke-width:4;stroke-linejoin:round;stroke-miterlimit:10;}
	.st1{fill:none;}
	.st2{fill:#FFFFFF;}
	.st3{font-family:'Lato-Regular';}
	.st4{font-size:75px;}
	.st5{display:none;}
	.st6{display:inline;}
	.st7{fill:none;stroke:#848484;stroke-width:4;stroke-linecap:round;stroke-miterlimit:10;}
	.st8{fill:none;stroke:#FFFFFF;stroke-width:5;stroke-miterlimit:10;}
	.st9{fill:#B7B7B7;}
</style>
<polygon class="st0" points="117.7,102.8 117.7,36.2 60,2.9 2.3,36.2 2.3,102.8 60,136.1 "/>
<rect x="17" y="22.7" class="st1" width="55.5" height="58.9"/>
<text transform="matrix(1 0 0 1 17.0101 78.0276)" class="st2 st3 st4">tt</text>
<g class="st5">
	<g class="st6">
		<path class="st7" d="M26.2,76.7c3.1,3.3,11.6,3.5,15.1,0"/>
	</g>
	<g class="st6">
		<path class="st7" d="M50.8,76.7c3.1,3.3,11.6,3.5,15.2,0"/>
	</g>
</g>
<g>
	<path class="st8" d="M97.7,41.8c0,36.3-29.4,65.7-65.7,65.7"/>
	<g>
		
			<rect x="94.1" y="70.3" transform="matrix(-0.4639 0.8859 -0.8859 -0.4639 211.5647 26.3839)" class="st2" width="7.5" height="13.7"/>
		<circle class="st2" cx="103.6" cy="80.3" r="3.7"/>
	</g>
	<g>
		
			<rect x="98.8" y="55.9" transform="matrix(-0.2991 0.9542 -0.9542 -0.2991 193.0391 -16.351)" class="st2" width="7.5" height="13.7"/>
		<circle class="st2" cx="108.8" cy="64.7" r="3.7"/>
	</g>
	<g>
		
			<rect x="85.5" y="80.5" transform="matrix(-0.6287 0.7776 -0.7776 -0.6287 214.5891 75.5793)" class="st2" width="7.5" height="17.1"/>
		<circle class="st9" cx="95.9" cy="94.4" r="3.7"/>
	</g>
	<g>
		
			<rect x="74.7" y="90.7" transform="matrix(-0.7432 0.6691 -0.6691 -0.7432 202.264 118.0723)" class="st2" width="7.5" height="14.4"/>
		<polygon class="st2" points="87.6,108 86.1,100.7 80.5,105.7 		"/>
	</g>
	<g>
		
			<rect x="49.2" y="103.8" transform="matrix(-0.9586 0.2848 -0.2848 -0.9586 135.2578 202.3968)" class="st2" width="7.5" height="14.4"/>
		<polygon class="st2" points="56.8,124.1 58.5,116.9 51.4,119 		"/>
	</g>
	<g>
		
			<rect x="63.3" y="99.3" transform="matrix(-0.8729 0.488 -0.488 -0.8729 178.4752 170.7603)" class="st2" width="7.5" height="18.7"/>
		<polygon class="st9" points="68.4,111.1 68.3,118.6 74.8,115 		"/>
	</g>
</g>
</svg>
